<svg width="295" height="234" viewBox="0 0 295 234" fill="none" xmlns="http://www.w3.org/2000/svg">
<g clip-path="url(#clip0_70_3753)">
<path opacity="0.1" d="M173.007 39.5448C154.341 38.8974 136.56 32.8859 119.584 26.3076C102.608 19.7293 85.7939 12.4401 67.5749 8.9553C55.8567 6.7136 42.4542 6.39705 33.0144 12.6646C23.9265 18.7077 20.9905 29.1104 19.4129 38.7736C18.2246 46.0426 17.5266 53.6914 20.7828 60.4971C23.0411 65.2222 27.0529 69.1934 29.8246 73.7344C39.4777 89.4809 32.6568 108.899 22.196 124.275C17.293 131.489 11.5969 138.375 7.81291 146.047C4.02893 153.719 2.27538 162.522 5.58636 170.355C8.87138 178.124 16.696 183.949 25.1696 188.05C42.3849 196.38 62.6632 198.763 82.4512 200.113C126.241 203.103 170.261 201.808 214.166 200.513C230.416 200.032 246.734 199.546 262.718 197.039C271.595 195.647 280.758 193.439 287.204 188.104C295.383 181.333 297.411 169.866 291.931 161.376C282.734 147.135 257.322 143.598 250.884 128.312C247.348 119.901 250.982 110.531 256.122 102.727C267.151 85.9903 285.635 71.3056 286.61 52.1749C287.279 39.0326 278.39 25.876 264.65 19.6573C250.25 13.1164 230.274 13.9452 219.655 24.7335C208.713 35.8499 189.487 40.1146 173.007 39.5448Z" fill="#3A9DF1"/>
<path d="M125.589 198.703L26.8714 198.222L17.0625 175.267L51.747 172.755L45.7019 147.587L114.304 138.715L48.612 115.929L54.4148 114.554L160.046 131.748L154.229 171.025L145.914 192.611L125.589 198.703Z" fill="#3A9DF1"/>
<path d="M28.3857 188.608C28.3857 188.608 34.4424 187.641 38.0764 191.911C38.0764 191.911 35.4115 194.006 29.6778 191.106L28.3857 188.608Z" fill="#3A9DF1"/>
<path d="M27.751 188.513C27.751 188.513 23.8862 193.258 25.7897 198.541C25.7897 198.541 28.9392 197.284 29.2824 190.878L27.751 188.513Z" fill="#3A9DF1"/>
<path d="M24.2788 180.711C24.2788 180.711 26.7015 176.277 36.3921 182.484C36.3921 182.484 35.1001 185.465 30.82 185.224C26.54 184.982 25.4094 183.048 24.2788 180.711Z" fill="#3A9DF1"/>
<path d="M23.6526 180.392C23.6526 180.392 18.6256 179.817 18.1382 191.298C18.1382 191.298 21.3251 191.957 23.5892 188.326C25.8532 184.694 24.9245 182.657 23.6526 180.392Z" fill="#3A9DF1"/>
<path d="M20.7251 171.232C20.7251 171.232 23.5515 163.417 33.8075 168.976C33.8075 168.976 31.4656 176.148 21.7749 173.891L20.7251 171.232Z" fill="#3A9DF1"/>
<path d="M17.5757 159.549C17.5757 159.549 22.9055 151.653 32.3539 158.974C32.3539 158.974 29.043 166.386 18.3832 162.358L17.5757 159.549Z" fill="#3A9DF1"/>
<path d="M16.4453 148.43C16.4453 148.43 22.6635 141.175 32.0196 148.43C32.0196 148.43 26.1244 154.795 16.4453 150.283V148.43Z" fill="#3A9DF1"/>
<path d="M15.4761 137.63C15.4761 137.63 21.775 130.056 30.7389 137.227C30.7389 137.227 23.6324 143.915 15.4761 139.403V137.63Z" fill="#3A9DF1"/>
<path d="M16.0415 128.042C16.0415 128.042 22.675 118.292 31.062 124.899C31.062 124.899 23.9555 133.279 16.0415 129.895V128.042Z" fill="#3A9DF1"/>
<path d="M17.5757 116.842C17.5757 116.842 24.6014 107.173 32.7577 114.586C32.7577 114.586 24.4399 122.965 17.5757 118.614V116.842Z" fill="#3A9DF1"/>
<path d="M19.9176 106.83C19.9176 106.83 28.2354 97.7427 35.4919 101.363C35.4919 101.363 26.8251 111.014 19.5542 109.242L19.9176 106.83Z" fill="#3A9DF1"/>
<path d="M22.8252 97.3398C22.8252 97.3398 32.4236 86.209 38.0072 89.927C38.0072 89.927 30.9353 98.56 22.1445 99.4233L22.8252 97.3398Z" fill="#3A9DF1"/>
<path d="M27.0212 86.3327C27.0212 86.3327 35.4227 77.2451 41.5601 79.5012C41.5601 79.5012 34.3729 88.9284 25.8936 89.1701L27.0212 86.3327Z" fill="#3A9DF1"/>
<path d="M30.8198 76.0365C30.8198 76.0365 40.1067 67.3344 44.1445 68.8654C44.1445 68.8654 37.4417 78.5343 30.416 77.9703L30.8198 76.0365Z" fill="#3A9DF1"/>
<path d="M34.5347 66.5287C34.5347 66.5287 42.5295 56.1317 46.8931 56.9374C46.8931 56.9374 42.0449 66.2064 34.5347 67.5848V66.5287Z" fill="#3A9DF1"/>
<path d="M38.5667 53.7087C38.5667 53.7087 45.6328 45.7405 49.4514 45.7577C49.4514 45.7577 43.8735 56.4051 38.2754 56.3072L38.5667 53.7087Z" fill="#3A9DF1"/>
<path d="M40.9545 45.1736L47.7813 28.5752C47.7813 28.5752 48.1216 43.5793 40.0864 48.2527L40.9545 45.1736Z" fill="#3A9DF1"/>
<path d="M43.7263 26.8687C43.7263 26.8687 44.8569 13.007 44.1301 11.879C44.1301 11.879 49.01 23.404 43.6802 32.9924L43.7263 26.8687Z" fill="#3A9DF1"/>
<path d="M20.4598 171.048C20.4598 171.048 13.3822 166.671 8.79932 177.379C8.79932 177.379 15.0983 181.552 21.2934 173.779L20.4598 171.048Z" fill="#3A9DF1"/>
<path d="M17.3481 159.103C17.3481 159.103 8.66688 155.152 4.45605 166.332C4.45605 166.332 11.1617 170.936 18.1384 161.929L17.3481 159.103Z" fill="#3A9DF1"/>
<path d="M16.0416 149.095C16.0416 149.095 9.82339 141.84 0.467285 149.095C0.467285 149.095 6.36244 155.46 16.0416 150.948V149.095Z" fill="#3A9DF1"/>
<path d="M15.2628 137.63C15.2628 137.63 8.96387 130.056 0 137.227C0 137.227 7.10649 143.915 15.2628 139.403V137.63Z" fill="#3A9DF1"/>
<path d="M16.0417 128.318C16.0417 128.318 11.6232 117.397 2.01904 122.093C2.01904 122.093 7.21047 131.777 15.6494 130.131L16.0417 128.318Z" fill="#3A9DF1"/>
<path d="M18.1327 116.787C18.1327 116.787 13.7402 105.676 4.00049 110.827C4.00049 110.827 9.96486 121.011 17.7001 118.502L18.1327 116.787Z" fill="#3A9DF1"/>
<path d="M20.8554 106.885C20.8554 106.885 19.1249 94.7039 11.0493 93.6132C11.0493 93.6132 12.7625 106.459 19.768 109.081L20.8554 106.885Z" fill="#3A9DF1"/>
<path d="M23.0299 97.3629C23.0299 97.3629 22.355 82.6868 15.6782 82.1746C15.6782 82.1746 15.9032 93.314 22.2771 99.4405L23.0299 97.3629Z" fill="#3A9DF1"/>
<path d="M27.7136 85.9212C27.7136 85.9212 25.7235 73.7171 19.3496 72.2264C19.3496 72.2264 20.1399 84.045 27.082 88.9169L27.7136 85.9212Z" fill="#3A9DF1"/>
<path d="M31.5754 76.1372C31.5754 76.1372 31.5091 63.4237 27.6155 61.5561C27.6155 61.5561 25.2015 73.0667 30.4477 77.7602L31.5754 76.1372Z" fill="#3A9DF1"/>
<path d="M34.8317 66.3848C34.8317 66.3848 34.2866 53.2943 30.2546 51.4497C30.2546 51.4497 28.8759 61.8093 34.2289 67.2423L34.8317 66.3848Z" fill="#3A9DF1"/>
<path d="M39.1287 54.7533C39.1287 54.7533 39.1056 44.106 36.2273 41.6082C36.2273 41.6082 33.3662 53.2713 37.6261 56.8943L39.1287 54.7533Z" fill="#3A9DF1"/>
<path d="M40.6171 44.6499L37.8166 26.9292C37.8166 26.9292 34.0125 41.4499 40.7498 47.8498L40.6171 44.6499Z" fill="#3A9DF1"/>
<path d="M41.1625 27.0356C41.1625 27.0356 33.9753 15.1221 34.1223 13.7984C34.1223 13.7984 34.8866 26.2846 43.9284 32.5032L41.1625 27.0356Z" fill="#3A9DF1"/>
<path d="M42.0045 23.5163C42.0045 23.5163 35.2211 6.5956 32.1523 5.22583C32.1523 5.22583 41.843 10.1409 42.5698 23.0328L42.0045 23.5163Z" fill="#3A9DF1"/>
<path d="M38.2407 56.408L37.7764 56.2669C43.5014 37.6398 44.929 25.7637 41.7997 22.7853L42.1314 22.4343C45.451 25.5767 44.1041 37.3233 38.2407 56.408Z" fill="#444053"/>
<path d="M22.476 100.022L21.7896 99.7772C22.3981 98.0708 23.0528 96.3384 23.7392 94.6319C29.7151 79.7717 34.8027 65.9474 38.0647 55.3346L38.6617 55.0468C35.394 65.6798 30.3958 80.0336 24.4141 94.914C23.7306 96.5888 23.0788 98.3125 22.476 100.022Z" fill="#444053"/>
<path d="M36.9196 202.547C36.8273 202.446 27.5491 192.021 21.08 174.222C17.2895 163.802 15.18 152.848 14.8301 141.768C14.3859 127.918 17.2989 112.453 22.2884 98.4045L22.8307 99.0376C11.6287 130.568 16.0789 157.587 21.9827 173.857C28.3826 191.494 37.557 201.805 37.6464 201.908L36.9196 202.547Z" fill="#444053"/>
<path d="M181.911 180.412C181.911 180.412 175.372 188.375 180.564 200.412L128.361 223.002L123.351 224.049L121.044 213.977L122.587 201.267V194.32L181.911 180.412Z" fill="#D5D6DB"/>
<path d="M17.0625 175.267L89.3156 162.125L185.054 177.342L125.589 198.703L17.0625 175.267Z" fill="#3A9DF1"/>
<path d="M17.0625 175.267L89.3156 162.125L185.054 177.342L125.589 198.703L17.0625 175.267Z" fill="#3A9DF1"/>
<path d="M17.0623 175.264C17.0623 175.264 10.3048 188.038 18.0919 199.836L125.237 223.002C125.237 223.002 118.586 212.826 125.58 198.703L17.0623 175.264Z" fill="#3A9DF1"/>
<path opacity="0.1" d="M17.0623 175.264C17.0623 175.264 10.3048 188.038 18.0919 199.836L125.237 223.002C125.237 223.002 118.586 212.826 125.58 198.703L17.0623 175.264Z" fill="black"/>
<path opacity="0.1" d="M20.2554 179.693C20.2554 179.693 16.3936 189.039 20.2554 195.088V179.693Z" fill="black"/>
<path d="M125.238 223.002L185.054 197.534C185.054 197.534 188.4 198.254 186.237 200.7C184.074 203.146 126.391 225.448 126.391 225.448L18.0923 199.836L125.238 223.002Z" fill="#3A9DF1"/>
<path opacity="0.1" d="M125.238 223.002L185.054 197.534C185.054 197.534 188.4 198.254 186.237 200.7C184.074 203.146 126.391 225.448 126.391 225.448L18.0923 199.836L125.238 223.002Z" fill="black"/>
<path opacity="0.1" d="M120.334 201.275C120.334 201.275 114.566 208.182 120.334 218.541V201.275Z" fill="black"/>
<path opacity="0.1" d="M148.26 201.158L122.387 209.771L122.478 210.044L148.352 201.431L148.26 201.158Z" fill="black"/>
<path opacity="0.1" d="M153.443 200.301L122.379 212.087L122.482 212.356L153.546 200.57L153.443 200.301Z" fill="black"/>
<path opacity="0.1" d="M158.202 200.26L122.553 214.819L122.662 215.086L158.312 200.526L158.202 200.26Z" fill="black"/>
<path opacity="0.1" d="M163.378 199.013L122.969 217.226L123.087 217.489L163.496 199.276L163.378 199.013Z" fill="black"/>
<path opacity="0.1" d="M167.726 199.019L123.289 218.399L123.404 218.663L167.841 199.283L167.726 199.019Z" fill="black"/>
<path opacity="0.1" d="M177.236 197.408L123.958 220.367L124.073 220.631L177.35 197.672L177.236 197.408Z" fill="black"/>
<path opacity="0.3" d="M43.9053 176.671L94.6659 166.024L125.59 171.923L83.9946 185.304L43.9053 176.671Z" fill="white"/>
<path d="M185.054 177.342C185.054 177.342 187.679 178.398 186.139 180.029C184.598 181.661 125.581 198.703 125.581 198.703L185.054 177.342Z" fill="#3A9DF1"/>
<path d="M210.547 152.735C210.547 152.735 204.011 160.694 209.203 172.735L157 195.324L151.99 196.377L149.683 186.306L151.249 173.598V166.643L210.547 152.735Z" fill="#D5D6DB"/>
<path d="M45.7017 147.587L117.952 134.447L213.693 149.664L154.228 171.025L45.7017 147.587Z" fill="#3A3768"/>
<path d="M45.6903 147.587C45.6903 147.587 38.9299 160.361 46.717 172.159L153.862 195.324C153.862 195.324 147.214 185.14 154.217 171.022L45.6903 147.587Z" fill="#3A3768"/>
<path opacity="0.1" d="M45.6903 147.587C45.6903 147.587 38.9299 160.361 46.717 172.159L153.862 195.324C153.862 195.324 147.214 185.14 154.217 171.022L120.334 163.704L45.6903 147.587Z" fill="black"/>
<path opacity="0.1" d="M48.8918 152.015C48.8918 152.015 45.0329 161.359 48.8918 167.411V152.015Z" fill="black"/>
<path d="M153.874 195.324L213.694 169.857C213.694 169.857 217.036 170.576 214.873 173.022C212.71 175.468 155.027 197.77 155.027 197.77L46.7285 172.159L153.874 195.324Z" fill="#3A3768"/>
<path opacity="0.1" d="M153.874 195.324L213.694 169.857C213.694 169.857 217.036 170.576 214.873 173.022C212.71 175.468 155.027 197.77 155.027 197.77L46.7285 172.159L153.874 195.324Z" fill="black"/>
<path opacity="0.1" d="M148.971 173.598C148.971 173.598 143.203 180.504 148.971 190.864V173.598Z" fill="black"/>
<path opacity="0.1" d="M176.899 173.484L151.026 182.097L151.117 182.37L176.99 173.757L176.899 173.484Z" fill="black"/>
<path opacity="0.1" d="M182.085 172.626L151.021 184.412L151.124 184.681L182.188 172.895L182.085 172.626Z" fill="black"/>
<path opacity="0.1" d="M186.84 172.58L151.19 187.14L151.3 187.406L186.949 172.847L186.84 172.58Z" fill="black"/>
<path opacity="0.1" d="M192.019 171.334L151.61 189.547L151.729 189.809L192.138 171.597L192.019 171.334Z" fill="black"/>
<path opacity="0.1" d="M196.363 171.337L151.926 190.716L152.041 190.98L196.478 171.6L196.363 171.337Z" fill="black"/>
<path opacity="0.1" d="M205.876 169.725L152.598 192.685L152.713 192.949L205.99 169.989L205.876 169.725Z" fill="black"/>
<path opacity="0.45" d="M72.5444 148.994L123.305 138.346L154.229 144.246L112.634 157.627L72.5444 148.994Z" fill="white"/>
<path d="M213.693 149.664C213.693 149.664 216.315 150.72 214.778 152.349C213.241 153.978 154.229 171.022 154.229 171.022L213.693 149.664Z" fill="#3A3768"/>
<path d="M213.258 121.072C213.258 121.072 206.72 135.365 211.911 147.403L159.708 163.661L154.71 164.717L152.403 154.646L153.946 141.935V134.98L213.258 121.072Z" fill="#D5D6DB"/>
<path d="M48.4214 115.927L120.675 102.784L216.416 118.001L156.948 139.362L48.4214 115.927Z" fill="#3A9DF1"/>
<path d="M48.4214 115.924C48.4214 115.924 41.6524 128.698 49.4395 140.496L156.585 163.661C156.585 163.661 149.934 153.477 156.937 139.362L48.4214 115.924Z" fill="#3A9DF1"/>
<path opacity="0.1" d="M48.4214 115.924C48.4214 115.924 41.6524 128.698 49.4395 140.496L156.585 163.661C156.585 163.661 149.934 153.477 156.937 139.362L48.4214 115.924Z" fill="black"/>
<path opacity="0.1" d="M51.6143 120.352C51.6143 120.352 47.7525 129.699 51.6143 135.748V120.352Z" fill="black"/>
<path d="M156.596 163.661L216.413 144.525C216.413 144.525 219.759 145.244 217.596 147.69C215.433 150.136 157.75 166.107 157.75 166.107L49.4512 140.496L156.596 163.661Z" fill="#3A9DF1"/>
<path opacity="0.1" d="M156.596 163.661L216.413 144.525C216.413 144.525 219.759 145.244 217.596 147.69C215.433 150.136 157.75 166.107 157.75 166.107L49.4512 140.496L156.596 163.661Z" fill="black"/>
<path opacity="0.1" d="M151.694 141.935C151.694 141.935 145.925 148.841 151.694 159.201V141.935Z" fill="black"/>
<path opacity="0.1" d="M179.623 141.821L153.75 150.433L153.841 150.706L179.714 142.094L179.623 141.821Z" fill="black"/>
<path opacity="0.1" d="M184.807 140.964L153.743 152.75L153.846 153.019L184.909 141.233L184.807 140.964Z" fill="black"/>
<path opacity="0.1" d="M189.559 140.92L153.91 155.479L154.019 155.745L189.669 141.186L189.559 140.92Z" fill="black"/>
<path opacity="0.1" d="M194.742 139.671L154.333 157.884L154.452 158.146L194.861 139.933L194.742 139.671Z" fill="black"/>
<path opacity="0.1" d="M199.087 139.676L154.65 159.056L154.766 159.32L199.203 139.94L199.087 139.676Z" fill="black"/>
<path opacity="0.1" d="M208.599 138.067L155.321 161.026L155.436 161.29L208.713 138.331L208.599 138.067Z" fill="black"/>
<path opacity="0.3" d="M75.2642 117.331L126.025 106.684L156.948 112.583L115.354 125.964L75.2642 117.331Z" fill="white"/>
<path d="M216.413 118.001C216.413 118.001 219.038 119.058 217.498 120.689C215.957 122.321 156.948 139.362 156.948 139.362L216.413 118.001Z" fill="#3A9DF1"/>
<path d="M89.5293 30.6471C89.5293 30.6471 78.5696 29.9881 79.8502 37.66C79.8502 37.66 79.5935 39.0153 80.825 39.6312C80.825 39.6312 80.8452 39.0556 81.9498 39.2542C82.344 39.3217 82.745 39.3411 83.1438 39.3117C83.6815 39.275 84.1927 39.0649 84.6003 38.7132C84.6003 38.7132 87.6835 37.4413 88.8833 32.4111C88.8833 32.4111 89.7716 31.3147 89.7485 31.0327L87.8911 31.8212C87.8911 31.8212 88.5227 33.1535 88.0267 34.2614C88.0267 34.2614 87.9661 31.8701 87.6085 31.9248C87.5364 31.9248 86.6481 32.3881 86.6481 32.3881C86.6481 32.3881 87.7354 34.7104 86.9134 36.3967C86.9134 36.3967 87.2249 33.5363 86.3077 32.555L85.0041 33.3147C85.0041 33.3147 86.276 35.7118 85.4136 37.6686C85.4136 37.6686 85.6357 34.6672 84.7301 33.4989L83.5476 34.4197C83.5476 34.4197 84.7445 36.7823 84.0148 38.4053C84.0148 38.4053 83.9197 34.9118 83.2938 34.6471C83.2938 34.6471 82.2584 35.5564 82.1027 35.9305C82.1027 35.9305 82.9218 37.6571 82.4113 38.552C82.4113 38.552 82.1027 36.224 81.8344 36.2125C81.8344 36.2125 80.8048 37.7549 80.6981 38.8024C80.748 37.8259 81.0532 36.8794 81.5835 36.0571C80.9901 36.1691 80.4426 36.4523 80.0088 36.8715C80.0088 36.8715 80.1674 35.7808 81.8402 35.6859C81.8402 35.6859 82.691 34.5147 82.9189 34.4456C82.9189 34.4456 81.2547 34.3046 80.2482 34.7506C80.2482 34.7506 81.1365 33.7233 83.2217 34.1751L84.3754 33.2255C84.3754 33.2255 82.1892 32.9377 81.2605 33.2571C81.2605 33.2571 82.3305 32.3478 84.6897 33.0097L85.9616 32.2528C85.9616 32.2528 84.0956 31.8528 82.9852 31.9967C82.9852 31.9967 84.1562 31.3665 86.3337 32.0485L87.2393 31.6428C87.2393 31.6428 85.8751 31.3751 85.4742 31.332C85.0733 31.2888 85.0531 31.1795 85.0531 31.1795C85.919 31.0376 86.8073 31.1372 87.62 31.4672C87.62 31.4672 89.5668 30.768 89.5293 30.6471Z" fill="#3A9DF1"/>
<path opacity="0.1" d="M243.714 62.1805C243.714 62.1805 232.755 61.5216 234.035 69.1934C234.035 69.1934 233.779 70.5488 235.01 71.1646C235.01 71.1646 235.03 70.5891 236.135 70.7876C236.529 70.8536 236.93 70.8729 237.329 70.8452C237.862 70.806 238.368 70.5961 238.771 70.2466C238.771 70.2466 241.857 68.9747 243.054 63.9446C243.054 63.9446 243.942 62.8482 243.919 62.5662L242.068 63.3546C242.068 63.3546 242.699 64.687 242.203 65.7949C242.203 65.7949 242.143 63.4036 241.788 63.4582C241.716 63.4582 240.824 63.9215 240.824 63.9215C240.824 63.9215 241.912 66.2438 241.093 67.9301C241.093 67.9301 241.404 65.0697 240.484 64.0884L239.181 64.8481C239.181 64.8481 240.452 67.2452 239.59 69.202C239.59 69.202 239.812 66.2006 238.907 65.0323L237.727 65.9532C237.727 65.9532 238.921 68.3157 238.191 69.9387C238.191 69.9387 238.096 66.4452 237.47 66.1805C237.47 66.1805 236.438 67.0898 236.279 67.4639C236.279 67.4639 237.098 69.1905 236.591 70.0855C236.591 70.0855 236.279 67.7575 236.014 67.7459C236.014 67.7459 234.984 69.2884 234.877 70.3358C234.927 69.3589 235.234 68.4122 235.766 67.5905C235.172 67.7028 234.623 67.9859 234.188 68.4049C234.188 68.4049 234.35 67.3143 236.02 67.2193C236.02 67.2193 236.87 66.0481 237.098 65.9762C237.098 65.9762 235.437 65.8381 234.427 66.2841C234.427 66.2841 235.316 65.2568 237.401 65.7086L238.555 64.7589C238.555 64.7589 236.366 64.4712 235.44 64.7906C235.44 64.7906 236.507 63.8812 238.869 64.5431L240.138 63.7863C240.138 63.7863 238.272 63.3863 237.162 63.5302C237.162 63.5302 238.333 62.9 240.51 63.582L241.419 63.1762C241.419 63.1762 240.052 62.9086 239.651 62.8654C239.25 62.8223 239.23 62.7129 239.23 62.7129C240.095 62.5692 240.984 62.6689 241.796 63.0007C241.796 63.0007 243.749 62.3014 243.714 62.1805Z" fill="#3A9DF1"/>
<path opacity="0.1" d="M107.987 78.0422C107.987 78.0422 103.211 68.1632 97.1314 73.0322C97.1314 73.0322 95.8191 73.4696 95.8826 74.8423C95.8826 74.8423 96.3873 74.5804 96.7478 75.6394C96.8825 76.0137 97.0606 76.3711 97.2785 76.7041C97.5736 77.1556 98.0079 77.499 98.5158 77.6825C98.5158 77.6825 101.132 79.7487 106.118 78.3386C106.118 78.3386 107.511 78.5775 107.739 78.4106L106.147 77.1818C106.147 77.1818 105.282 78.3818 104.076 78.4883C104.076 78.4883 106.141 77.271 105.919 76.989C105.873 76.9315 105.054 76.3761 105.054 76.3761C105.054 76.3761 103.552 78.4566 101.677 78.5631C101.677 78.5631 104.33 77.4408 104.74 76.1602L103.442 75.3948C103.442 75.3948 101.962 77.6739 99.831 77.8753C99.831 77.8753 102.565 76.6063 103.145 75.248L101.766 74.6725C101.766 74.6725 100.281 76.8653 98.5043 77.0235C98.5043 77.0235 101.515 75.2365 101.44 74.5603C101.44 74.5603 100.14 74.1056 99.7358 74.1488C99.7358 74.1488 98.6341 75.6998 97.5958 75.6998C97.5958 75.6998 99.4791 74.2926 99.3637 74.0653C99.3637 74.0653 97.5121 73.9214 96.5373 74.3531C97.4157 73.9174 98.3932 73.719 99.3724 73.7775C98.9839 73.3154 98.4687 72.9763 97.89 72.802C97.89 72.802 98.9225 72.4107 99.8194 73.8178C99.8194 73.8178 101.262 73.9876 101.432 74.1516C101.432 74.1516 100.742 72.638 99.8627 71.979C99.8627 71.979 101.195 72.2466 101.804 74.2811L103.203 74.8336C103.203 74.8336 102.398 72.7847 101.657 72.1373C101.657 72.1373 102.972 72.6236 103.546 75.0149L104.826 75.7516C104.826 75.7516 104.27 73.9301 103.601 73.0351C103.601 73.0351 104.722 73.7488 105.187 75.9761L105.986 76.5689C105.986 76.5689 105.553 75.248 105.409 74.8797C105.265 74.5113 105.337 74.4365 105.337 74.4365C105.885 75.1198 106.233 75.9417 106.34 76.8106C106.34 76.8106 107.883 78.1286 107.987 78.0422Z" fill="#3A9DF1"/>
<path opacity="0.1" d="M218.675 48.2239C218.675 48.2239 213.901 38.3449 207.819 43.2139C207.819 43.2139 206.509 43.6513 206.57 45.0239C206.57 45.0239 207.078 44.7649 207.435 45.821C207.57 46.1969 207.749 46.5553 207.969 46.8886C208.263 47.3392 208.696 47.6818 209.203 47.8642C209.203 47.8642 211.822 49.9303 216.806 48.5231C216.806 48.5231 218.199 48.7591 218.429 48.5922L216.846 47.3606C216.846 47.3606 215.981 48.5634 214.778 48.6699C214.778 48.6699 216.84 47.4498 216.618 47.1678C216.572 47.1102 215.753 46.5548 215.753 46.5548C215.753 46.5548 214.253 48.6354 212.376 48.7419C212.376 48.7419 215.032 47.6196 215.441 46.3419L214.123 45.5822C214.123 45.5822 212.647 47.8584 210.513 48.0627C210.513 48.0627 213.247 46.7908 213.829 45.4325L212.448 44.857C212.448 44.857 210.962 47.0527 209.189 47.2081C209.189 47.2081 212.197 45.421 212.122 44.7477C212.122 44.7477 210.824 44.2901 210.42 44.3362C210.42 44.3362 209.318 45.8843 208.277 45.8843C208.277 45.8843 210.164 44.4772 210.048 44.2498C210.048 44.2498 208.197 44.1059 207.219 44.5376C208.097 44.1018 209.075 43.9034 210.054 43.9621C209.667 43.4996 209.153 43.1604 208.574 42.9865C208.574 42.9865 209.607 42.5952 210.504 44.0023C210.504 44.0023 211.946 44.175 212.116 44.339C212.116 44.339 211.427 42.8225 210.544 42.1635C210.544 42.1635 211.877 42.434 212.485 44.48L213.887 45.0325C213.887 45.0325 213.082 42.9808 212.341 42.3333C212.341 42.3333 213.656 42.8196 214.227 45.211L215.511 45.9476C215.511 45.9476 214.951 44.129 214.282 43.2311C214.282 43.2311 215.407 43.9448 215.868 46.1721L216.667 46.7649C216.667 46.7649 216.237 45.4441 216.09 45.0757C215.943 44.7074 216.018 44.6354 216.018 44.6354C216.565 45.3193 216.912 46.1411 217.019 47.0095C217.019 47.0095 218.585 48.316 218.675 48.2239Z" fill="#3A9DF1"/>
<path opacity="0.1" d="M233.929 97.0894C233.929 97.0894 229.156 87.2075 223.064 92.0765C223.064 92.0765 221.755 92.5139 221.816 93.8866C221.816 93.8866 222.323 93.6276 222.681 94.6837C222.814 95.0595 222.992 95.4179 223.211 95.7513C223.505 96.2019 223.939 96.5445 224.446 96.7268C224.446 96.7268 227.065 98.7959 232.051 97.3858C232.051 97.3858 233.441 97.6247 233.672 97.4549L232.08 96.2261C232.08 96.2261 231.215 97.429 230.009 97.5355C230.009 97.5355 232.071 96.3153 231.849 96.0333C231.803 95.9758 230.984 95.4204 230.984 95.4204C230.984 95.4204 229.484 97.5009 227.607 97.6103C227.607 97.6103 230.263 96.4851 230.673 95.2074L229.372 94.442C229.372 94.442 227.895 96.7211 225.761 96.9225C225.761 96.9225 228.495 95.6506 229.078 94.2923L227.696 93.7168C227.696 93.7168 226.211 95.9096 224.437 96.0679C224.437 96.0679 227.448 94.2808 227.373 93.6046C227.373 93.6046 226.072 93.147 225.669 93.1931C225.669 93.1931 224.567 94.7413 223.526 94.7413C223.526 94.7413 225.412 93.3341 225.297 93.1067C225.297 93.1067 223.445 92.9629 222.467 93.3945C223.347 92.959 224.325 92.7606 225.305 92.819C224.918 92.3558 224.402 92.0165 223.823 91.8434C223.823 91.8434 224.855 91.4492 225.752 92.8593C225.752 92.8593 227.194 93.029 227.365 93.1931C227.365 93.1931 226.675 91.6794 225.796 91.0176C225.796 91.0176 227.128 91.2881 227.737 93.3341L229.135 93.8866C229.135 93.8866 228.331 91.8348 227.59 91.1902C227.59 91.1902 228.905 91.6737 229.476 94.0679L230.759 94.8017C230.759 94.8017 230.2 92.983 229.531 92.0852C229.531 92.0852 230.655 92.7988 231.12 95.029L231.919 95.6046C231.919 95.6046 231.486 94.2837 231.342 93.9154C231.198 93.547 231.27 93.4751 231.27 93.4751C231.818 94.1582 232.165 94.9803 232.27 95.8492C232.27 95.8492 233.839 97.1758 233.929 97.0894Z" fill="#3A9DF1"/>
<path opacity="0.1" d="M58.2449 225.655C61.9068 225.655 64.8755 225.324 64.8755 224.915C64.8755 224.507 61.9068 224.176 58.2449 224.176C54.5829 224.176 51.6143 224.507 51.6143 224.915C51.6143 225.324 54.5829 225.655 58.2449 225.655Z" fill="#3A9DF1"/>
<path opacity="0.1" d="M14.7781 213.085C18.4401 213.085 21.4087 212.754 21.4087 212.346C21.4087 211.937 18.4401 211.606 14.7781 211.606C11.1161 211.606 8.14746 211.937 8.14746 212.346C8.14746 212.754 11.1161 213.085 14.7781 213.085Z" fill="#3A9DF1"/>
<path opacity="0.1" d="M91.3777 234.003C95.0396 234.003 98.0083 233.672 98.0083 233.263C98.0083 232.855 95.0396 232.524 91.3777 232.524C87.7157 232.524 84.7471 232.855 84.7471 233.263C84.7471 233.672 87.7157 234.003 91.3777 234.003Z" fill="#3A9DF1"/>
<path opacity="0.1" d="M261.166 215.819C264.828 215.819 267.797 215.488 267.797 215.079C267.797 214.671 264.828 214.34 261.166 214.34C257.504 214.34 254.536 214.671 254.536 215.079C254.536 215.488 257.504 215.819 261.166 215.819Z" fill="#3A9DF1"/>
<path opacity="0.1" d="M205.99 212.23C209.652 212.23 212.621 211.899 212.621 211.491C212.621 211.082 209.652 210.751 205.99 210.751C202.328 210.751 199.359 211.082 199.359 211.491C199.359 211.899 202.328 212.23 205.99 212.23Z" fill="#3A9DF1"/>
<path opacity="0.1" d="M170.296 229.732C174.627 229.732 178.138 229.131 178.138 228.389C178.138 227.646 174.627 227.045 170.296 227.045C165.965 227.045 162.454 227.646 162.454 228.389C162.454 229.131 165.965 229.732 170.296 229.732Z" fill="#3A9DF1"/>
<path d="M173.795 214.881C173.795 214.881 162.875 220.509 168.517 227.14C168.517 227.14 169.047 228.578 170.582 228.478C170.582 228.478 170.276 227.919 171.447 227.473C171.864 227.313 172.26 227.103 172.627 226.849C173.122 226.507 173.493 226.013 173.682 225.442C173.682 225.442 175.915 222.461 174.184 216.944C174.184 216.944 174.409 215.384 174.213 215.131L172.886 216.947C172.886 216.947 174.256 217.865 174.415 219.215C174.415 219.215 172.973 216.95 172.684 217.2C172.621 217.252 172.027 218.193 172.027 218.193C172.027 218.193 174.403 219.802 174.579 221.891C174.579 221.891 173.241 218.964 171.796 218.547L170.968 220.02C170.968 220.02 173.564 221.597 173.852 223.968C173.852 223.968 172.344 220.961 170.804 220.354L170.195 221.911C170.195 221.911 172.699 223.499 172.929 225.473C172.929 225.473 170.836 222.173 170.083 222.276C170.083 222.276 169.61 223.738 169.673 224.19C169.673 224.19 171.441 225.37 171.473 226.53C171.473 226.53 169.841 224.472 169.59 224.607C169.59 224.607 169.486 226.676 169.988 227.753C169.988 227.753 169.122 226.216 169.264 224.607C168.758 225.054 168.394 225.638 168.217 226.288C168.217 226.288 167.747 225.151 169.295 224.104C169.295 224.104 169.443 222.495 169.621 222.297C169.621 222.297 167.946 223.114 167.233 224.115C167.233 224.115 167.496 222.622 169.768 221.879L170.345 220.302C170.345 220.302 168.073 221.263 167.372 222.109C167.372 222.109 167.876 220.627 170.524 219.917L171.309 218.478C171.309 218.478 169.29 219.157 168.303 219.917C168.303 219.917 169.068 218.642 171.551 218.055L172.188 217.148C172.188 217.148 170.723 217.669 170.314 217.856C169.904 218.043 169.823 217.951 169.823 217.951C170.572 217.319 171.481 216.907 172.451 216.76C172.451 216.76 173.896 214.979 173.795 214.881Z" fill="#3A9DF1"/>
<path d="M206.203 108.571C204.317 103.458 193.934 102.977 189.429 104.281C186.228 105.21 179.479 106.258 175.874 106.784L175.64 106.563C176.108 106.425 176.119 106.085 176.061 105.581C176.028 104.918 176.037 104.253 176.09 103.59C178.299 104.275 180.266 102.655 180.266 102.655C182.862 101.504 182.164 96.5773 182.66 95.2305C183.032 94.2233 183.433 88.2896 183.612 85.3314H183.65L183.67 84.3386C183.696 83.9098 183.707 83.6594 183.707 83.6594C183.707 83.6594 183.961 76.425 184.457 74.9603C184.919 73.6135 185.294 66.828 185.351 65.7517C185.351 65.6597 185.351 65.6107 185.351 65.6107L185.314 64.9834C185.34 64.5258 185.351 64.0165 185.348 63.4813C185.348 61.0209 185.092 57.9216 185.06 57.4209C185.06 57.349 185.06 57.2626 185.06 57.159C185.08 56.1087 184.947 50.8483 180.463 48.8599C178.81 48.1232 176.823 47.2455 174.899 46.3908C174.403 42.1175 173.27 37.8672 173.368 33.5622C173.368 32.9147 173.425 32.2673 173.489 31.6227C173.489 31.8097 173.469 31.9996 173.466 32.1982C173.466 32.6155 173.466 33.0356 173.466 33.4529C173.636 28.0687 175.675 22.6559 175.485 17.3869C175.467 17.902 175.43 18.4199 175.381 18.9379C175.48 17.1557 175.293 15.3691 174.827 13.6459C174.654 13.0387 174.42 12.4114 173.921 12.0056C173.45 11.6789 172.909 11.4652 172.341 11.3812C170.976 11.0326 169.59 10.775 168.191 10.61C167.978 9.96069 167.663 9.3496 167.256 8.79992C164.332 4.79421 160 1.03023 154.878 0.166933C152.308 -0.264716 149.352 0.0949912 147.604 1.92806C147.421 2.08909 147.25 2.26214 147.09 2.44604C146.15 3.56545 145.746 5.03594 144.783 6.15247C144.72 6.22729 144.648 6.29636 144.578 6.3683C142.692 8.05173 139.753 8.4028 137.656 9.91358C137.287 10.1848 136.941 10.486 136.621 10.8143C135.776 11.6496 135.018 12.5685 134.36 13.5567C133.417 14.8804 132.448 16.2588 132.148 17.8387C131.545 21.0041 133.705 24.0055 134.106 27.1911C135 34.319 127.095 40.6441 128.592 47.6771C128.991 49.4049 129.873 50.9844 131.135 52.2325C128.052 55.0181 125.428 57.7202 125.428 57.7202V57.8813H124.94L124.989 58.4569H124.94L125.208 61.5791L124.94 66.1258C124.94 66.1258 124.94 66.1748 124.94 66.2668V66.2899V66.4136C124.94 66.4136 124.94 66.4625 124.94 66.5546H124.958C125.047 68.2208 125.402 74.2121 125.823 75.4754C126.319 76.9401 126.57 84.1745 126.57 84.1745C126.57 84.1745 127.118 94.3989 127.62 95.7514C128.121 97.1039 127.409 102.016 130.013 103.176C130.775 103.759 131.677 104.132 132.629 104.258C132.497 105.334 132.58 106.114 133.01 106.358C133.194 106.466 133.402 106.526 133.616 106.531C133.439 106.793 133.282 107.067 133.146 107.351C132.112 107.244 131.096 107.005 130.123 106.64C127.325 105.489 118.041 102.899 115.345 104.721C112.648 106.543 106.159 108.194 109.155 115.527C112.152 122.859 113.548 123.043 113.548 123.043C114.47 123.711 115.28 124.522 115.945 125.446C116.845 126.796 125.229 129.883 127.325 129.883C128.217 129.87 129.108 129.914 129.993 130.016C129.993 130.016 127.718 132.007 128.021 133.164C128.323 134.321 127.328 143.581 127.328 143.581C127.328 143.581 129.636 145.9 130.622 142.859L130.657 142.905C130.841 143.155 131.839 144.286 133.717 142.859C134.485 142.277 135.301 141.761 136.157 141.316L145.247 140.033C146.195 139.974 147.146 139.967 148.094 140.013C149.536 140.131 150.952 139.279 151.843 138.62C153.727 139.334 155.844 140.113 156.85 140.398C158.892 140.974 168.277 143.486 170.472 142.7C170.928 142.519 171.334 142.231 171.654 141.86L173.748 141.926L172.768 142.122C172.768 142.122 174.677 142.154 177.273 142.188L177.163 142.252L180.419 142.223C185.184 142.266 190.537 142.28 191.241 142.122C192.342 141.877 198.067 142.05 199.755 142.122H200.225C200.225 142.122 206.515 140.87 203.919 134.502C201.923 129.61 195.789 128.188 193.066 127.797C193.833 127.644 194.494 127.527 194.932 127.457C196.833 127.17 200.525 125.443 200.825 124.853C201.124 124.263 204.219 122.551 205.018 121.576C205.817 120.6 208.098 113.685 206.203 108.571ZM154.102 122.882L153.793 122.983L153.585 123.052L153.187 123.443C152.87 123.23 152.53 123.006 152.175 122.775C152.801 122.813 153.444 122.85 154.102 122.882Z" fill="url(#paint0_linear_70_3753)"/>
<path d="M172.491 92.5399C172.491 92.5399 176.904 104.051 179.413 102.899C181.922 101.748 181.242 96.8564 181.72 95.5154C182.199 94.1744 182.73 84.0047 182.73 84.0047C182.73 84.0047 182.972 76.8106 183.451 75.3545C183.895 74.0164 184.256 67.2683 184.316 66.2064C184.316 66.1143 184.316 66.0654 184.316 66.0654L183.84 57.7202L181.146 57.0497L174.899 59.3518L174.034 64.2812L173.697 66.2064L173.553 67.0265L172.491 92.5399Z" fill="#BE6F72"/>
<path opacity="0.1" d="M173.944 90.6118C173.944 90.6118 178.155 94.0506 179.424 94.3528C180.693 94.6549 181.472 97.3369 181.472 97.3369" fill="black"/>
<path d="M137.982 93.0435C137.982 93.0435 133.569 104.554 131.06 103.403C128.551 102.252 129.232 97.36 128.753 96.019C128.274 94.678 127.743 84.5083 127.743 84.5083C127.743 84.5083 127.501 77.3142 127.022 75.8581C126.578 74.52 126.218 67.7719 126.157 66.71C126.157 66.6179 126.157 66.569 126.157 66.569L126.636 58.2238L129.33 57.5533L135.577 59.8554L136.442 64.7848L136.779 66.71L136.924 67.5301L137.982 93.0435Z" fill="#BE6F72"/>
<path d="M166.717 31.4442H156.868V46.762H166.717V31.4442Z" fill="#3E373A"/>
<path opacity="0.1" d="M166.717 31.4442H156.868V46.762H166.717V31.4442Z" fill="black"/>
<path d="M136.252 104.508C136.252 104.508 132.886 108.2 134.135 108.871C135.384 109.541 143.462 122.108 143.462 122.108C143.462 122.108 169.996 125.368 175 120.476C180.004 115.584 179.903 106.845 179.903 106.845C179.903 106.845 175.883 107.708 175.444 107.239C175.006 106.77 172.597 104.508 172.597 104.508C172.597 104.508 138.559 102.448 136.252 104.508Z" fill="#4B4B5B"/>
<path opacity="0.02" d="M136.252 104.508C136.252 104.508 132.886 108.2 134.135 108.871C135.384 109.541 143.462 122.108 143.462 122.108C143.462 122.108 169.996 125.368 175 120.476C180.004 115.584 179.903 106.845 179.903 106.845C179.903 106.845 175.883 107.708 175.444 107.239C175.006 106.77 172.597 104.508 172.597 104.508C172.597 104.508 138.559 102.448 136.252 104.508Z" fill="black"/>
<path d="M184.019 57.841L175.366 64.7474L172.751 64.9373L171.79 65.0064L155.659 66.1863L138.931 64.9661L136.442 64.7848L133.27 64.5546L126.636 58.2238C126.636 58.2238 131.332 53.2051 135.444 49.8181C137.065 48.48 138.597 47.398 139.713 46.9721L139.903 46.9059C140.605 46.6328 141.232 46.1968 141.732 45.634C144.979 42.293 147.982 34.0485 147.982 34.0485C147.982 34.0485 162.307 26.6644 160.577 36.3507C158.846 46.0369 167.017 43.6427 167.017 43.6427L169.711 44.8685L170.775 45.3549L173.489 46.5951L179.612 49.398C184.417 51.6051 184.019 57.841 184.019 57.841Z" fill="#BE6F72"/>
<path opacity="0.1" d="M154.987 41.9362C162.103 41.9362 167.871 36.181 167.871 29.0817C167.871 21.9823 162.103 16.2272 154.987 16.2272C147.872 16.2272 142.104 21.9823 142.104 29.0817C142.104 36.181 147.872 41.9362 154.987 41.9362Z" fill="black"/>
<path opacity="0.1" d="M184.039 66.9977H126.157C126.157 66.9056 126.157 66.8567 126.157 66.8567L126.636 58.5115C126.636 58.5115 131.331 53.4928 135.444 50.1058L171.784 48.667L173.474 46.8886L179.597 49.6915C184.405 51.8957 184.019 58.1316 184.019 58.1316C184.019 58.1316 184.676 65.3574 184.039 66.9977Z" fill="black"/>
<path d="M184.039 66.71H126.157C126.157 66.6179 126.157 66.569 126.157 66.569L126.636 58.2238C126.636 58.2238 131.331 53.2051 135.444 49.8181L171.784 48.3793L173.474 46.6009L179.597 49.4037C184.405 51.608 184.019 57.8439 184.019 57.8439C184.019 57.8439 184.676 65.0697 184.039 66.71Z" fill="#E7C7CA"/>
<path opacity="0.1" d="M145.709 43.3088C145.709 43.3088 154.84 54.9173 167.003 43.07C179.165 31.2227 168.35 69.4956 168.35 69.4956L142.104 72.6034L145.709 43.3088Z" fill="black"/>
<path d="M145.709 43.8843C145.709 43.8843 154.84 55.4928 167.003 43.6455C179.165 31.7982 168.35 70.0711 168.35 70.0711L142.104 73.1789L145.709 43.8843Z" fill="#E7C7CA"/>
<path opacity="0.1" d="M170.761 45.9217L171.727 60.6237L172.762 65.5157L173.552 69.2567C173.552 69.2567 175.571 98.0333 174.994 99.4721C174.418 100.911 175.283 102.062 175.404 102.827C175.525 103.593 175.283 105.515 175.378 106.379C175.473 107.242 175.378 107.625 173.169 107.317C170.96 107.009 167.879 106.473 167.879 106.473C167.879 106.473 160.092 107.049 157.401 106.091C154.71 105.132 149.614 105.13 149.614 105.13C149.614 105.13 141.922 105.322 139.425 105.035C136.927 104.747 135.577 108.105 133.945 107.144C132.312 106.183 135.865 96.8822 137.019 94.1945C138.173 91.5068 135.482 84.6982 135.482 84.6982L138.943 65.5416L139.713 61.1992V47.5476L139.903 47.4814C140.605 47.2082 141.232 46.7722 141.732 46.2095L142.597 59.9474L169.708 60.9086V45.4469" fill="black"/>
<path d="M170.761 45.3462L171.727 60.0482L172.762 64.9402L173.552 68.6812C173.552 68.6812 175.571 97.4578 174.994 98.8966C174.418 100.335 175.283 101.487 175.404 102.252C175.525 103.017 175.283 104.94 175.378 105.803C175.473 106.666 175.378 107.049 173.169 106.741C170.96 106.433 167.879 105.898 167.879 105.898C167.879 105.898 160.092 106.474 157.401 105.515C154.71 104.557 149.614 104.554 149.614 104.554C149.614 104.554 141.922 104.747 139.425 104.459C136.927 104.171 135.577 107.53 133.945 106.568C132.312 105.607 135.865 96.3067 137.019 93.619C138.173 90.9313 135.482 84.1227 135.482 84.1227L138.943 64.9661L139.713 60.6237V46.9721L139.903 46.9059C140.605 46.6327 141.232 46.1967 141.732 45.634L142.597 59.3719L169.708 60.3331V44.8714" fill="#E7C7CA"/>
<path opacity="0.1" d="M173.878 14.6646C173.714 14.0631 173.486 13.4387 173.013 13.0358C172.561 12.7122 172.04 12.4993 171.49 12.4142C170.175 12.0691 168.837 11.8133 167.487 11.6488C167.294 11.0098 167.002 10.4049 166.622 9.85599C163.795 5.87331 159.613 2.11796 154.693 1.26905C152.118 0.823011 149.132 1.22301 147.483 3.24888C146.577 4.36254 146.188 5.83878 145.274 6.93229C143.511 9.056 140.33 9.31787 138.109 10.961C136.924 11.8243 136.064 13.0761 135.225 14.2905C134.317 15.6056 133.382 16.9753 133.094 18.5465C132.517 21.6861 134.596 24.6788 134.98 27.8471C135.845 34.9348 128.231 41.2225 129.67 48.2152C130.51 52.2929 134.285 55.1648 138.19 56.6209C139.566 57.136 141.138 57.6482 141.781 58.9662C142.069 59.5417 142.118 60.2065 142.389 60.7878C143.301 62.7273 146.297 62.8021 147.907 61.3892C149.516 59.9762 150.024 57.6914 150.214 55.559C150.987 46.2469 147.249 37.047 147.685 27.7119C147.814 24.8889 148.61 21.6861 151.146 20.4084C154.558 18.6818 158.662 21.5594 162.417 21.0098C164.194 25.3238 164.571 30.085 163.495 34.624C162.898 37.1075 161.866 39.5161 161.791 42.0772C161.678 45.9764 163.787 49.539 165.609 52.9864C166.001 53.6311 166.262 54.3456 166.38 55.09C166.408 55.8453 166.267 56.5974 165.967 57.2914C164.937 60.0568 163.161 62.6237 162.959 65.5675C162.9 65.9112 162.977 66.2643 163.175 66.5517C163.378 66.7435 163.641 66.8612 163.919 66.8855C167.034 67.4179 169.728 64.664 171.248 61.8985C172.943 58.8441 173.93 55.4498 174.138 51.9648C174.452 46.1059 172.347 40.3419 172.477 34.4773C172.627 27.8097 175.646 21.0961 173.878 14.6646Z" fill="black"/>
<path d="M174.167 14.3768C174.002 13.7754 173.775 13.1509 173.302 12.748C172.85 12.4244 172.328 12.2115 171.779 12.1265C170.463 11.7813 169.126 11.5256 167.776 11.361C167.583 10.722 167.291 10.1171 166.91 9.56821C164.084 5.58553 159.902 1.83018 154.982 0.981268C152.406 0.53523 149.421 0.935225 147.771 2.9611C146.866 4.07475 146.476 5.551 145.562 6.64451C143.8 8.76822 140.619 9.03009 138.398 10.6732C137.213 11.5365 136.353 12.7883 135.514 14.0027C134.605 15.3178 133.671 16.6876 133.382 18.2588C132.806 21.3983 134.885 24.3911 135.269 27.5594C136.134 34.647 128.52 40.9347 129.959 47.9275C130.798 52.0051 134.574 54.877 138.479 56.3331C139.854 56.8482 141.426 57.3604 142.069 58.6784C142.358 59.2539 142.407 59.9187 142.678 60.5C143.589 62.4395 146.586 62.5143 148.195 61.1014C149.805 59.6885 150.312 57.4036 150.503 55.2713C151.276 45.9591 147.538 36.7592 147.973 27.4241C148.103 24.6011 148.899 21.3983 151.434 20.1206C154.846 18.394 158.95 21.2717 162.705 20.722C164.482 25.036 164.86 29.7972 163.784 34.3363C163.187 36.8197 162.154 39.2283 162.079 41.7894C161.967 45.6886 164.075 49.2512 165.898 52.6986C166.289 53.3433 166.551 54.0578 166.668 54.8022C166.697 55.5575 166.556 56.3096 166.256 57.0036C165.226 59.769 163.449 62.3359 163.248 65.2798C163.188 65.6234 163.266 65.9765 163.464 66.2639C163.667 66.4557 163.929 66.5734 164.208 66.5977C167.323 67.1301 170.017 64.3762 171.537 61.6107C173.231 58.5563 174.219 55.162 174.426 51.6771C174.741 45.8181 172.635 40.0542 172.765 34.1895C172.915 27.5219 175.935 20.8084 174.167 14.3768Z" fill="#3E373A"/>
<path d="M167.795 141.791L179.237 142.157L177.596 133.69L168.831 134.522L167.795 141.791Z" fill="#C3C7D9"/>
<path d="M203.247 121.725C202.477 122.683 199.498 124.41 199.209 124.986C198.921 125.561 195.365 127.288 193.536 127.575C191.708 127.863 185.942 129.112 184.884 129.783C184.125 130.266 178.037 131.797 174.037 132.646C172.953 132.902 171.857 133.099 170.752 133.236C169.021 133.331 150.084 126.905 150.084 126.905L153.735 123.164L153.937 123.095C154.97 122.747 159.74 121.138 162.388 120.373C165.37 119.509 168.831 115.961 168.831 115.961C168.831 115.961 173.924 114.235 174.599 114.042C175.274 113.849 172.869 107.328 172.869 107.328C172.869 107.328 183.923 105.797 188.25 104.499C192.576 103.202 202.575 103.682 204.401 108.767C206.226 113.852 204.029 120.767 203.247 121.725Z" fill="#4B4B5B"/>
<path d="M152.87 137.935C152.87 137.935 150.661 140.237 148.449 140.047C146.237 139.857 138.501 140.623 138.501 140.623C137.1 141.181 135.787 141.94 134.605 142.876C132.797 144.297 131.836 143.164 131.657 142.922L131.626 142.876C130.662 145.9 128.453 143.595 128.453 143.595C128.453 143.595 129.414 134.387 129.119 133.236C128.825 132.085 131.02 130.108 131.02 130.108L133.616 129.449L140.192 127.768L149.614 131.029L152.87 137.935Z" fill="#E7C7CA"/>
<path opacity="0.1" d="M133.604 129.449L131.657 142.922L131.626 142.876C130.662 145.9 128.453 143.595 128.453 143.595C128.453 143.595 129.414 134.387 129.119 133.236C128.825 132.085 131.02 130.108 131.02 130.108L133.604 129.449Z" fill="black"/>
<path opacity="0.1" d="M147.211 91.124C147.211 91.124 152.305 92.8506 156.729 91.124H147.211Z" fill="black"/>
<path opacity="0.1" d="M164.6 94.3873C164.6 94.3873 166.714 95.4406 168.349 94.3873H164.6Z" fill="black"/>
<path opacity="0.1" d="M164.6 96.8851C164.6 96.8851 168.156 97.3599 168.831 96.4017L164.6 96.8851Z" fill="black"/>
<path opacity="0.1" d="M163.446 102.252C163.446 102.252 170.126 101.389 171.784 100.238L163.446 102.252Z" fill="black"/>
<path opacity="0.1" d="M143.064 100.238C143.064 100.238 146.814 102.347 149.603 102.252L143.064 100.238Z" fill="black"/>
<path opacity="0.1" d="M174.034 132.646C172.95 132.902 171.854 133.099 170.749 133.236C169.018 133.331 150.081 126.905 150.081 126.905L153.732 123.164L153.934 123.095C154.511 123.501 154.984 123.849 155.322 124.114C156.911 125.363 158.445 123.731 159.022 123.731C159.599 123.731 164.597 127.855 164.597 127.855C164.597 127.855 169.211 128.911 169.982 129.869C170.752 130.827 173.442 130.637 173.921 131.308C174.065 131.515 174.083 132.024 174.034 132.646Z" fill="black"/>
<path d="M138.501 107.72C138.501 107.72 133.835 107.987 131.144 106.856C128.453 105.725 119.512 103.115 116.917 104.948C114.321 106.781 108.071 108.402 110.955 115.694C113.839 122.986 115.186 123.175 115.186 123.175C116.079 123.843 116.858 124.65 117.493 125.564C118.359 126.908 126.434 129.975 128.453 129.975C130.472 129.975 134.028 129.975 139.026 133.429C144.025 136.882 148.544 137.267 148.544 137.267C148.544 137.267 154.889 139.857 156.865 140.433C158.84 141.008 167.868 143.5 169.985 142.735C172.102 141.969 173.446 137.17 173.446 137.17C173.446 137.17 174.406 132.853 173.924 132.183C173.443 131.512 170.752 131.702 169.985 130.744C169.217 129.785 164.6 128.729 164.6 128.729C164.6 128.729 159.613 124.603 159.036 124.603C158.46 124.603 156.925 126.232 155.336 124.986C152.17 122.646 148.845 120.531 145.383 118.655C141.732 116.735 138.501 107.72 138.501 107.72Z" fill="#4B4B5B"/>
<path opacity="0.1" d="M129.12 110.502C129.951 110.333 130.809 110.357 131.629 110.573C132.449 110.789 133.208 111.192 133.847 111.748C136.154 113.668 143.918 117.521 143.918 117.521" fill="black"/>
<path opacity="0.1" d="M186.808 110.381C186.808 110.381 176.52 111.935 174.599 114.045L186.808 110.381Z" fill="black"/>
<path d="M198.633 142.157H198.18C196.553 142.099 191.042 141.926 189.98 142.157C188.731 142.444 172.194 142.157 172.194 142.157L175.427 141.486C175.427 141.486 174.227 137.29 174.989 136.942C174.989 136.942 170.662 134.099 173.924 132.18C177.186 130.26 180.702 131.069 180.702 131.069L188.89 128.301L190.462 127.768C190.462 127.768 199.691 128.249 202.189 134.58C204.686 140.91 198.633 142.157 198.633 142.157Z" fill="#E7C7CA"/>
<path opacity="0.1" d="M198.633 142.157H198.18C200.865 139.946 206.939 133.219 188.89 128.315L190.462 127.783C190.462 127.783 199.691 128.263 202.189 134.594C204.687 140.925 198.633 142.157 198.633 142.157Z" fill="black"/>
<path d="M181.665 134.698C181.944 134.698 182.17 134.472 182.17 134.194C182.17 133.916 181.944 133.69 181.665 133.69C181.387 133.69 181.161 133.916 181.161 134.194C181.161 134.472 181.387 134.698 181.665 134.698Z" fill="#4B4B5B"/>
<path d="M178.732 135.529C179.011 135.529 179.237 135.304 179.237 135.026C179.237 134.748 179.011 134.522 178.732 134.522C178.454 134.522 178.228 134.748 178.228 135.026C178.228 135.304 178.454 135.529 178.732 135.529Z" fill="#4B4B5B"/>
<g opacity="0.1">
<path opacity="0.1" d="M164.441 28.6068C164.553 25.4416 163.989 22.2889 162.786 19.358C159.037 19.9163 154.93 17.03 151.515 18.7566C148.988 20.0342 148.195 23.2371 148.054 26.0601C148.019 26.8054 148.013 27.5507 148.028 28.296C148.028 28.0313 148.028 27.7636 148.054 27.4989C148.186 24.6759 148.98 21.4731 151.515 20.1954C154.93 18.4688 159.031 21.3465 162.786 20.7968C163.805 23.2794 164.366 25.9252 164.441 28.6068Z" fill="black"/>
<path opacity="0.1" d="M135.387 28.0802C135.436 27.4532 135.424 26.8228 135.349 26.1982C135.044 23.6659 133.656 21.2458 133.405 18.7767C133.082 21.7551 134.983 24.6155 135.349 27.6371C135.387 27.7925 135.387 27.9306 135.387 28.0802Z" fill="black"/>
<path opacity="0.1" d="M150.583 53.9044C150.405 56.0396 149.9 58.3216 148.276 59.7374C146.652 61.1532 143.661 61.0755 142.759 59.136C142.47 58.5604 142.427 57.8899 142.147 57.3144C141.507 55.9964 139.932 55.4842 138.557 54.9691C134.649 53.5101 130.879 50.6526 130.04 46.5634C129.965 46.193 129.914 45.8181 129.887 45.4412C129.816 46.2978 129.867 47.1601 130.04 48.0023C130.879 52.0799 134.654 54.949 138.557 56.4079C139.932 56.923 141.507 57.4353 142.147 58.7532C142.436 59.3288 142.485 59.9935 142.759 60.5748C143.667 62.5143 146.664 62.5892 148.276 61.1762C149.888 59.7633 150.39 57.4784 150.583 55.3432C150.671 54.2193 150.701 53.0917 150.673 51.9648C150.673 52.6181 150.635 53.2627 150.583 53.9044Z" fill="black"/>
<path opacity="0.1" d="M172.86 32.8255C172.86 33.2427 172.86 33.6571 172.86 34.0715C173.022 28.7191 174.989 23.3378 174.796 18.0976C174.646 22.9436 172.97 27.8989 172.86 32.8255Z" fill="black"/>
<path opacity="0.1" d="M166.671 54.477C166.742 54.1356 166.764 53.7858 166.737 53.4382C166.621 52.6934 166.359 51.9787 165.967 51.3346C164.3 48.1692 162.4 44.9289 162.175 41.4153C162.175 41.5649 162.154 41.703 162.152 41.8642C162.036 45.7606 164.144 49.326 165.967 52.7734C166.277 53.3074 166.514 53.8803 166.671 54.477Z" fill="black"/>
<path opacity="0.1" d="M174.518 50.313C174.303 53.7994 173.309 57.1935 171.608 60.2467C170.086 63.0121 167.395 65.7661 164.277 65.2337C163.998 65.2097 163.735 65.0908 163.533 64.897C163.474 64.8311 163.428 64.755 163.397 64.6726C163.363 64.897 163.334 65.1243 163.316 65.3546C163.257 65.6973 163.335 66.0497 163.533 66.3358C163.735 66.5297 163.998 66.6485 164.277 66.6725C167.395 67.2049 170.086 64.451 171.608 61.6855C173.309 58.6323 174.303 55.2382 174.518 51.7519C174.553 51.0785 174.556 50.408 174.536 49.7375C174.53 49.9303 174.53 50.1202 174.518 50.313Z" fill="black"/>
</g>
<path opacity="0.1" d="M174.989 136.942C174.989 136.942 182.288 139.998 187.102 133.236" stroke="black" stroke-miterlimit="10"/>
<path opacity="0.1" d="M176.425 142.283C176.425 142.283 182.386 138.416 189.98 142.157" stroke="black" stroke-miterlimit="10"/>
<path opacity="0.1" d="M136.52 141.405C136.52 141.405 139.023 135.771 145.709 140.067" stroke="black" stroke-miterlimit="10"/>
<path opacity="0.1" d="M128.404 58.0799L133.509 53.4756C133.509 53.4756 153.303 52.1807 154.122 58.8943C154.122 58.8943 161.139 50.9346 175.897 52.7073L182.141 57.6684L164.883 65.2251L148.112 71.0294L135.759 65.5129L128.404 58.0799Z" fill="black"/>
<path d="M128.404 58.3677L133.509 53.7634C133.509 53.7634 153.303 52.4685 154.122 59.182C154.122 59.182 161.139 51.2224 175.897 52.9951L182.141 57.9562L164.883 65.5129L148.112 71.3171L135.759 65.8007L128.404 58.3677Z" fill="#D5D6DB"/>
<path opacity="0.1" d="M126.146 58.9432L128.404 85.8982L152.343 87.0982L151.304 60.2583L151.284 59.8065L126.146 58.9432Z" fill="black"/>
<path d="M126.146 58.3676L128.404 85.3227L152.343 86.5227L151.304 59.6827L151.284 59.2309L126.146 58.3676Z" fill="#3A9DF1"/>
<path opacity="0.1" d="M183.237 58.3676L158.543 62.0625V89.1385L182.675 85.6594L183.237 58.3676Z" fill="black"/>
<path d="M183.237 57.7921L158.543 61.487V88.563L182.675 85.0839L183.237 57.7921Z" fill="#3A9DF1"/>
<path opacity="0.3" d="M177.414 64.3992L164.075 65.8783L164.366 70.4135L177.406 68.992L177.414 64.3992Z" fill="white"/>
<path d="M129.702 99.7571L131.061 103.403C131.061 103.403 133.08 105.13 135.289 104.266C137.498 103.403 139.425 102.974 140.385 102.134C141.345 101.294 142.692 97.0722 142.692 97.0722C142.692 97.0722 144.039 92.4679 145.383 91.3169C146.727 90.1658 150.286 74.307 145.383 75.8581C140.48 77.4091 136.731 91.7974 136.731 91.7974C136.731 91.7974 135.866 92.8507 134.617 92.9485C133.368 93.0464 130.867 92.7557 130.386 93.8118C129.904 94.8679 128.26 97.6477 129.702 99.7571Z" fill="#BE6F72"/>
<path opacity="0.1" d="M158.543 62.0597C157.279 62.3439 155.966 62.329 154.708 62.0163C153.451 61.7035 152.284 61.1014 151.301 60.2582L152.342 87.0953C152.342 87.0953 154.794 89.7428 158.543 89.1385V62.0597Z" fill="black"/>
<path d="M158.543 61.4841C157.279 61.7684 155.966 61.7535 154.708 61.4407C153.451 61.128 152.284 60.5259 151.301 59.6827L152.342 86.5198C152.342 86.5198 154.794 89.1673 158.543 88.563V61.4841Z" fill="#3A9DF1"/>
<path opacity="0.1" d="M158.543 61.4841C157.279 61.7684 155.966 61.7535 154.708 61.4407C153.451 61.128 152.284 60.5259 151.301 59.6827L152.342 86.5198C152.342 86.5198 154.794 89.1673 158.543 88.563V61.4841Z" fill="black"/>
<path opacity="0.1" d="M159.12 58.4597C159.12 58.4597 169.166 55.395 171.784 55.8266L159.12 58.4597Z" fill="black"/>
<path opacity="0.1" d="M147.883 57.1216C147.883 57.1216 138.147 54.8195 136.52 55.4727L147.883 57.1216Z" fill="black"/>
<path opacity="0.1" d="M165.454 58.8424C165.454 58.8424 172.171 56.3849 174.599 57.5532L165.454 58.8424Z" fill="black"/>
<path opacity="0.1" d="M162.071 120.491C163.112 119.711 164.22 119.024 165.382 118.439C167.112 117.607 170.285 115.449 170.285 115.449" fill="black"/>
<path opacity="0.1" d="M136.52 91.124C136.52 91.124 132.307 94.5628 131.04 94.865C129.774 95.1671 128.993 97.8491 128.993 97.8491" fill="black"/>
<path d="M180.76 99.2448L179.416 102.899C179.416 102.899 177.397 104.626 175.185 103.763C172.973 102.899 171.052 102.471 170.089 101.63C169.125 100.79 167.781 96.5686 167.781 96.5686C167.781 96.5686 166.437 91.9643 165.09 90.8133C163.744 89.6622 160.187 73.8034 165.09 75.3545C169.993 76.9055 173.743 91.2939 173.743 91.2939C173.743 91.2939 174.608 92.3471 175.857 92.4449C177.106 92.5428 179.606 92.2521 180.088 93.3082C180.57 94.3643 182.202 97.1441 180.76 99.2448Z" fill="#BE6F72"/>
<path opacity="0.1" d="M178.403 92.5226C178.403 92.5226 181.158 94.2895 181.146 96.4017L178.403 92.5226Z" fill="black"/>
<path d="M155.033 41.306C162.149 41.306 167.917 35.5508 167.917 28.4514C167.917 21.3521 162.149 15.5969 155.033 15.5969C147.918 15.5969 142.15 21.3521 142.15 28.4514C142.15 35.5508 147.918 41.306 155.033 41.306Z" fill="#BE6F72"/>
<path d="M146.943 25.0012C148.507 24.7566 149.877 23.8501 151.37 23.3292C154.713 22.158 158.411 22.9609 161.794 24.017C163.092 24.4227 164.41 24.8803 165.771 24.8803C167.132 24.8803 168.577 24.3249 169.272 23.1537C169.913 22.0775 169.789 20.6789 169.249 19.548C168.71 18.4171 167.807 17.5077 166.896 16.6502C163.896 13.8243 160.176 11.1826 156.06 11.4704C154.405 11.5884 152.821 12.1783 151.298 12.8315C149.381 13.656 147.514 14.5938 145.709 15.6401C144.322 16.443 141.752 17.5164 140.953 18.984C139.136 22.2904 144.117 25.4443 146.943 25.0012Z" fill="#3E373A"/>
<path opacity="0.1" d="M169.272 21.9451C168.577 23.1163 167.132 23.6717 165.771 23.6717C164.41 23.6717 163.092 23.2314 161.791 22.8256C158.408 21.7695 154.713 20.9638 151.368 22.1379C149.877 22.6587 148.504 23.5767 146.941 23.8069C144.662 24.1637 140.994 22.1839 140.596 19.666C140.149 22.5753 144.403 25.0673 146.941 24.6702C148.504 24.4256 149.877 23.5191 151.368 23.0012C154.713 21.8271 158.408 22.6328 161.791 23.6889C163.092 24.0947 164.407 24.5522 165.771 24.535C167.135 24.5177 168.577 23.9824 169.272 22.8084C169.633 22.1696 169.775 21.4311 169.676 20.7048C169.631 21.1421 169.494 21.5649 169.272 21.9451Z" fill="black"/>
<path d="M273.825 177.9C273.825 177.9 275.535 180.13 273.034 183.5C270.534 186.87 268.475 189.713 269.305 191.813C269.305 191.813 273.078 185.557 276.146 185.468C279.215 185.379 277.196 181.661 273.825 177.9Z" fill="#3A9DF1"/>
<path opacity="0.1" d="M273.825 177.9C273.974 178.115 274.091 178.351 274.174 178.599C277.167 182.11 278.765 185.388 275.884 185.468C273.202 185.546 269.986 190.331 269.216 191.537C269.24 191.635 269.27 191.731 269.305 191.825C269.305 191.825 273.078 185.569 276.146 185.48C279.215 185.391 277.196 181.661 273.825 177.9Z" fill="black"/>
<path d="M276.997 180.743C276.997 181.529 276.908 182.165 276.801 182.165C276.694 182.165 276.602 181.529 276.602 180.743C276.602 179.958 276.712 180.329 276.821 180.329C276.931 180.329 276.997 179.958 276.997 180.743Z" fill="#FFD037"/>
<path d="M278.09 181.681C277.401 182.055 276.798 182.283 276.746 182.188C276.694 182.093 277.211 181.71 277.9 181.324C278.589 180.939 278.318 181.221 278.37 181.324C278.422 181.428 278.782 181.304 278.09 181.681Z" fill="#FFD037"/>
<path d="M264.786 177.9C264.786 177.9 263.076 180.13 265.576 183.5C268.077 186.87 270.136 189.713 269.303 191.813C269.303 191.813 265.533 185.557 262.461 185.468C259.39 185.379 261.423 181.661 264.786 177.9Z" fill="#3A9DF1"/>
<path opacity="0.1" d="M264.786 177.9C264.637 178.115 264.52 178.351 264.437 178.599C261.443 182.11 259.846 185.388 262.727 185.468C265.406 185.546 268.625 190.331 269.395 191.537C269.371 191.635 269.34 191.731 269.303 191.825C269.303 191.825 265.533 185.569 262.461 185.48C259.39 185.391 261.423 181.661 264.786 177.9Z" fill="black"/>
<path d="M261.607 180.743C261.607 181.529 261.694 182.165 261.804 182.165C261.913 182.165 262.003 181.529 262.003 180.743C262.003 179.958 261.89 180.329 261.783 180.329C261.677 180.329 261.607 179.958 261.607 180.743Z" fill="#FFD037"/>
<path d="M260.517 181.681C261.207 182.055 261.809 182.283 261.861 182.188C261.913 182.093 261.397 181.71 260.708 181.324C260.018 180.939 260.29 181.221 260.238 181.324C260.186 181.428 259.825 181.304 260.517 181.681Z" fill="#FFD037"/>
<path opacity="0.1" d="M269.305 208.884C279.181 208.884 287.187 207.659 287.187 206.147C287.187 204.636 279.181 203.41 269.305 203.41C259.43 203.41 251.424 204.636 251.424 206.147C251.424 207.659 259.43 208.884 269.305 208.884Z" fill="#3A9DF1"/>
<path d="M278.509 188.806L278.422 189.503L278.301 190.487L278.252 190.898L278.131 191.883L278.079 192.294L277.961 193.275L276.591 204.469C276.47 205.468 274.834 206.248 272.859 206.248H265.749C263.774 206.248 262.141 205.468 262.017 204.469L260.647 193.275L260.526 192.294L260.477 191.883L260.356 190.898L260.304 190.487L260.186 189.503L260.099 188.806C260.033 188.231 260.915 187.765 262.034 187.765H276.576C277.692 187.765 278.578 188.239 278.509 188.806Z" fill="#65617D"/>
<path d="M278.422 189.503L278.304 190.487H260.307L260.186 189.503H278.422Z" fill="#9D9CB5"/>
<path d="M278.252 190.898L278.134 191.883H260.477L260.356 190.898H278.252Z" fill="#9D9CB5"/>
<path d="M278.082 192.294L277.96 193.278H260.647L260.529 192.294H278.082Z" fill="#9D9CB5"/>
</g>
<defs>
<linearGradient id="paint0_linear_70_3753" x1="157.658" y1="144.436" x2="157.658" y2="2.7789e-05" gradientUnits="userSpaceOnUse">
<stop stop-color="#808080" stop-opacity="0.25"/>
<stop offset="0.54" stop-color="#808080" stop-opacity="0.12"/>
<stop offset="1" stop-color="#808080" stop-opacity="0.1"/>
</linearGradient>
<clipPath id="clip0_70_3753">
<rect width="295" height="234" fill="white"/>
</clipPath>
</defs>
</svg>
